<svg width="237" height="41" viewBox="0 0 237 41" fill="none" xmlns="http://www.w3.org/2000/svg">
    <rect width="40" height="40" rx="6" fill="url(#paint0_linear_39_88)"/>
    <path d="M52.288 28.824L54.592 26.16C55.96 27.48 57.352 28.476 58.768 29.148C60.208 29.796 61.708 30.12 63.268 30.12C65.068 30.12 66.532 29.724 67.66 28.932C68.812 28.14 69.388 27.132 69.388 25.908C69.388 24.804 68.992 23.952 68.2 23.352C67.408 22.728 66.1 22.26 64.276 21.948L60.064 21.264C57.76 20.88 56.032 20.148 54.88 19.068C53.752 17.964 53.188 16.512 53.188 14.712C53.188 12.528 54.04 10.776 55.744 9.456C57.448 8.136 59.692 7.476 62.476 7.476C64.276 7.476 66.064 7.776 67.84 8.376C69.616 8.952 71.212 9.792 72.628 10.896L70.54 13.776C69.172 12.744 67.804 11.976 66.436 11.472C65.068 10.944 63.688 10.68 62.296 10.68C60.664 10.68 59.344 11.028 58.336 11.724C57.328 12.42 56.824 13.32 56.824 14.424C56.824 15.456 57.172 16.248 57.868 16.8C58.564 17.328 59.716 17.724 61.324 17.988L65.392 18.636C68.032 19.068 69.976 19.86 71.224 21.012C72.496 22.14 73.132 23.676 73.132 25.62C73.132 26.772 72.892 27.828 72.412 28.788C71.932 29.748 71.248 30.564 70.36 31.236C69.496 31.908 68.44 32.436 67.192 32.82C65.944 33.18 64.576 33.36 63.088 33.36C61.072 33.36 59.128 32.964 57.256 32.172C55.384 31.38 53.728 30.264 52.288 28.824ZM76.2021 33V7.8L79.8021 7.008V16.512C80.5221 15.792 81.3381 15.252 82.2501 14.892C83.1861 14.508 84.2061 14.316 85.3101 14.316C87.3981 14.316 89.1141 14.988 90.4581 16.332C91.8021 17.652 92.4741 19.368 92.4741 21.48V33H88.8741V22.092C88.8741 20.652 88.4541 19.524 87.6141 18.708C86.7981 17.868 85.7061 17.448 84.3381 17.448C83.3781 17.448 82.5021 17.652 81.7101 18.06C80.9421 18.468 80.3061 19.056 79.8021 19.824V33H76.2021ZM95.7999 23.82C95.7999 22.5 96.0399 21.264 96.5199 20.112C97.0239 18.936 97.7079 17.928 98.5719 17.088C99.4359 16.224 100.444 15.552 101.596 15.072C102.772 14.568 104.02 14.316 105.34 14.316C106.66 14.316 107.896 14.568 109.048 15.072C110.224 15.552 111.232 16.224 112.072 17.088C112.936 17.928 113.608 18.936 114.088 20.112C114.592 21.264 114.844 22.5 114.844 23.82C114.844 25.164 114.592 26.424 114.088 27.6C113.608 28.752 112.936 29.76 112.072 30.624C111.232 31.464 110.224 32.136 109.048 32.64C107.896 33.12 106.66 33.36 105.34 33.36C104.02 33.36 102.772 33.12 101.596 32.64C100.444 32.136 99.4359 31.464 98.5719 30.624C97.7079 29.76 97.0239 28.752 96.5199 27.6C96.0399 26.424 95.7999 25.164 95.7999 23.82ZM105.34 30.192C106.996 30.192 108.4 29.58 109.552 28.356C110.728 27.108 111.316 25.596 111.316 23.82C111.316 22.044 110.728 20.544 109.552 19.32C108.4 18.096 106.996 17.484 105.34 17.484C103.684 17.484 102.268 18.096 101.092 19.32C99.9159 20.544 99.3279 22.044 99.3279 23.82C99.3279 25.596 99.9039 27.108 101.056 28.356C102.232 29.58 103.66 30.192 105.34 30.192ZM118.249 40.452V14.676H121.813V16.44C122.557 15.768 123.409 15.264 124.369 14.928C125.329 14.568 126.349 14.388 127.429 14.388C128.725 14.388 129.937 14.64 131.065 15.144C132.193 15.624 133.165 16.284 133.981 17.124C134.821 17.964 135.481 18.96 135.961 20.112C136.441 21.264 136.681 22.5 136.681 23.82C136.681 25.14 136.441 26.388 135.961 27.564C135.481 28.716 134.821 29.712 133.981 30.552C133.165 31.392 132.181 32.064 131.029 32.568C129.877 33.048 128.653 33.288 127.357 33.288C126.349 33.288 125.365 33.132 124.405 32.82C123.469 32.508 122.617 32.064 121.849 31.488V40.452H118.249ZM126.961 17.52C125.929 17.52 124.969 17.712 124.081 18.096C123.193 18.48 122.449 19.02 121.849 19.716V27.996C122.425 28.668 123.157 29.196 124.045 29.58C124.957 29.964 125.929 30.156 126.961 30.156C128.713 30.156 130.177 29.556 131.353 28.356C132.553 27.156 133.153 25.656 133.153 23.856C133.153 22.056 132.553 20.556 131.353 19.356C130.153 18.132 128.689 17.52 126.961 17.52ZM156.062 30.912C155.007 31.728 153.903 32.34 152.751 32.748C151.599 33.132 150.339 33.324 148.971 33.324C147.627 33.324 146.367 33.084 145.191 32.604C144.015 32.1 142.995 31.428 142.131 30.588C141.267 29.748 140.583 28.752 140.079 27.6C139.599 26.424 139.359 25.164 139.359 23.82C139.359 22.5 139.599 21.264 140.079 20.112C140.559 18.96 141.207 17.964 142.023 17.124C142.839 16.284 143.811 15.624 144.939 15.144C146.067 14.64 147.267 14.388 148.539 14.388C149.787 14.388 150.951 14.64 152.031 15.144C153.135 15.624 154.071 16.296 154.839 17.16C155.631 18 156.255 19.008 156.711 20.184C157.167 21.36 157.395 22.62 157.395 23.964V25.008H142.923C143.163 26.52 143.859 27.78 145.011 28.788C146.163 29.772 147.531 30.264 149.115 30.264C150.003 30.264 150.855 30.12 151.671 29.832C152.487 29.544 153.183 29.148 153.759 28.644L156.062 30.912ZM148.467 17.412C147.099 17.412 145.899 17.868 144.867 18.78C143.859 19.692 143.223 20.868 142.959 22.308H153.831C153.567 20.916 152.931 19.752 151.923 18.816C150.939 17.88 149.787 17.412 148.467 17.412ZM149.655 6.9H153.975L149.367 11.292H146.343L149.655 6.9ZM166.408 33.324C164.416 33.324 162.796 32.808 161.548 31.776C160.3 30.744 159.676 29.4 159.676 27.744C159.676 26.016 160.336 24.66 161.656 23.676C162.976 22.668 164.788 22.164 167.092 22.164C167.98 22.164 168.844 22.26 169.684 22.452C170.524 22.62 171.328 22.86 172.096 23.172V21.228C172.096 19.932 171.712 18.96 170.944 18.312C170.176 17.664 169.072 17.34 167.632 17.34C166.792 17.34 165.916 17.472 165.004 17.736C164.092 17.976 163.072 18.36 161.944 18.888L160.612 16.188C161.98 15.54 163.276 15.072 164.5 14.784C165.724 14.472 166.936 14.316 168.136 14.316C170.512 14.316 172.348 14.892 173.644 16.044C174.964 17.172 175.624 18.78 175.624 20.868V33H172.096V31.416C171.28 32.064 170.404 32.544 169.468 32.856C168.532 33.168 167.512 33.324 166.408 33.324ZM163.132 27.672C163.132 28.56 163.504 29.28 164.248 29.832C165.016 30.384 166.012 30.66 167.236 30.66C168.196 30.66 169.084 30.516 169.9 30.228C170.716 29.94 171.448 29.508 172.096 28.932V25.764C171.4 25.38 170.668 25.104 169.9 24.936C169.132 24.744 168.292 24.648 167.38 24.648C166.084 24.648 165.052 24.924 164.284 25.476C163.516 26.028 163.132 26.76 163.132 27.672ZM179.772 33V14.676H183.372V16.404C184.044 15.732 184.812 15.216 185.676 14.856C186.54 14.496 187.488 14.316 188.52 14.316C189.744 14.316 190.848 14.592 191.832 15.144C192.816 15.672 193.596 16.416 194.172 17.376C194.916 16.368 195.804 15.612 196.836 15.108C197.892 14.58 199.068 14.316 200.364 14.316C202.38 14.316 204.024 14.988 205.296 16.332C206.592 17.652 207.24 19.368 207.24 21.48V33H203.64V22.092C203.64 20.652 203.256 19.524 202.488 18.708C201.744 17.868 200.724 17.448 199.428 17.448C198.54 17.448 197.736 17.652 197.016 18.06C196.296 18.468 195.672 19.08 195.144 19.896C195.192 20.136 195.228 20.4 195.252 20.688C195.276 20.952 195.288 21.216 195.288 21.48V33H191.724V22.092C191.724 20.652 191.34 19.524 190.572 18.708C189.828 17.868 188.808 17.448 187.512 17.448C186.648 17.448 185.868 17.64 185.172 18.024C184.476 18.384 183.876 18.936 183.372 19.68V33H179.772ZM227.254 30.912C226.198 31.728 225.094 32.34 223.942 32.748C222.79 33.132 221.53 33.324 220.162 33.324C218.818 33.324 217.558 33.084 216.382 32.604C215.206 32.1 214.186 31.428 213.322 30.588C212.458 29.748 211.774 28.752 211.27 27.6C210.79 26.424 210.55 25.164 210.55 23.82C210.55 22.5 210.79 21.264 211.27 20.112C211.75 18.96 212.398 17.964 213.214 17.124C214.03 16.284 215.002 15.624 216.13 15.144C217.258 14.64 218.458 14.388 219.73 14.388C220.978 14.388 222.142 14.64 223.222 15.144C224.326 15.624 225.262 16.296 226.03 17.16C226.822 18 227.446 19.008 227.902 20.184C228.358 21.36 228.586 22.62 228.586 23.964V25.008H214.114C214.354 26.52 215.05 27.78 216.202 28.788C217.354 29.772 218.722 30.264 220.306 30.264C221.194 30.264 222.046 30.12 222.862 29.832C223.678 29.544 224.374 29.148 224.95 28.644L227.254 30.912ZM219.658 17.412C218.29 17.412 217.09 17.868 216.058 18.78C215.05 19.692 214.414 20.868 214.15 22.308H225.022C224.758 20.916 224.122 19.752 223.114 18.816C222.13 17.88 220.978 17.412 219.658 17.412ZM232.375 25.8L231.907 6.9H235.615L235.183 25.8H232.375ZM233.779 33.288C233.155 33.288 232.615 33.06 232.159 32.604C231.703 32.148 231.475 31.608 231.475 30.984C231.475 30.36 231.703 29.832 232.159 29.4C232.615 28.944 233.155 28.716 233.779 28.716C234.403 28.716 234.931 28.944 235.363 29.4C235.819 29.832 236.047 30.36 236.047 30.984C236.047 31.608 235.819 32.148 235.363 32.604C234.931 33.06 234.403 33.288 233.779 33.288Z" fill="#0C2146"/>
    <path d="M9.98663 27.448L12.6426 24.12C13.944 25.2507 15.192 26.0827 16.3866 26.616C17.6026 27.128 18.8826 27.384 20.2266 27.384C21.6133 27.384 22.7226 27.128 23.5546 26.616C24.3866 26.104 24.8026 25.4213 24.8026 24.568C24.8026 23.8 24.5146 23.2027 23.9386 22.776C23.384 22.3493 22.4453 22.0293 21.1226 21.816L16.6746 21.048C14.7546 20.728 13.2933 20.056 12.2906 19.032C11.3093 18.008 10.8186 16.6853 10.8186 15.064C10.8186 12.9733 11.608 11.32 13.1866 10.104C14.7866 8.888 16.9413 8.28 19.6506 8.28C21.272 8.28 22.904 8.55733 24.5466 9.112C26.2106 9.66667 27.6613 10.4347 28.8986 11.416L26.4026 14.872C25.208 13.9547 24.0346 13.2827 22.8826 12.856C21.7306 12.408 20.5466 12.184 19.3306 12.184C18.0933 12.184 17.1013 12.4187 16.3546 12.888C15.608 13.336 15.2346 13.944 15.2346 14.712C15.2346 15.3947 15.48 15.928 15.9706 16.312C16.4613 16.696 17.2826 16.9733 18.4346 17.144L22.6586 17.848C24.8773 18.2107 26.5413 18.9253 27.6506 19.992C28.7813 21.0373 29.3466 22.424 29.3466 24.152C29.3466 26.328 28.4826 28.0667 26.7546 29.368C25.048 30.6693 22.7653 31.32 19.9066 31.32C18.1146 31.32 16.344 30.9787 14.5946 30.296C12.8666 29.6133 11.3306 28.664 9.98663 27.448Z" fill="white"/>
    <defs>
    <linearGradient id="paint0_linear_39_88" x1="0" y1="20" x2="40" y2="20" gradientUnits="userSpaceOnUse">
    <stop stop-color="#2979FF"/>
    <stop offset="1" stop-color="#4C589E"/>
    </linearGradient>
    </defs>
    </svg>